<svg xmlns="http://www.w3.org/2000/svg" width="1280" height="720" viewBox="0 0 1280 720">
<defs><linearGradient id="bg" x1="0" x2="1" y1="0" y2="1"><stop offset="0" stop-color="#fff7ed"/><stop offset="0.55" stop-color="#fffdf8"/><stop offset="1" stop-color="#eaf4ff"/></linearGradient><linearGradient id="fillWait" x1="0" x2="0" y1="0" y2="1"><stop offset="0" stop-color="#B81C22" stop-opacity="0.22"/><stop offset="1" stop-color="#B81C22" stop-opacity="0.02"/></linearGradient><filter id="shadow" x="-20%" y="-20%" width="140%" height="140%"><feDropShadow dx="0" dy="16" stdDeviation="20" flood-color="#6b1a11" flood-opacity="0.13"/></filter></defs>
<rect width="1280" height="720" rx="28" fill="url(#bg)"/>
<rect x="34" y="34" width="1212" height="652" rx="26" fill="#ffffff" filter="url(#shadow)"/>
<text x="72" y="74" font-family="Arial, PingFang SC, sans-serif" font-size="28" font-weight="800" fill="#171717">太阳宫凯德店 · 排队曲线</text>
<text x="72" y="104" font-family="Arial, PingFang SC, sans-serif" font-size="14" fill="#6b7280">本机公开基准采样 · 2026-06-03 11:42-23:56 · 119 个点</text>
<rect x="710" y="52" width="112" height="58" rx="16" fill="#f8fafc" stroke="#e5e7eb"/>
<text x="724" y="74" font-family="Arial, PingFang SC, sans-serif" font-size="12" fill="#6b7280">峰值等待</text>
<text x="724" y="94" font-family="Arial, PingFang SC, sans-serif" font-size="18" font-weight="800" fill="#111827">255 分钟</text>
<text x="724" y="108" font-family="Arial, PingFang SC, sans-serif" font-size="10" fill="#9ca3af">19:04</text>
<rect x="838" y="52" width="112" height="58" rx="16" fill="#f8fafc" stroke="#e5e7eb"/>
<text x="852" y="74" font-family="Arial, PingFang SC, sans-serif" font-size="12" fill="#6b7280">平均等待</text>
<text x="852" y="94" font-family="Arial, PingFang SC, sans-serif" font-size="18" font-weight="800" fill="#111827">63.8 分钟</text>
<text x="852" y="108" font-family="Arial, PingFang SC, sans-serif" font-size="10" fill="#9ca3af">营业时段</text>
<rect x="966" y="52" width="112" height="58" rx="16" fill="#f8fafc" stroke="#e5e7eb"/>
<text x="980" y="74" font-family="Arial, PingFang SC, sans-serif" font-size="12" fill="#6b7280">峰值在等</text>
<text x="980" y="94" font-family="Arial, PingFang SC, sans-serif" font-size="18" font-weight="800" fill="#111827">64 桌</text>
<text x="980" y="108" font-family="Arial, PingFang SC, sans-serif" font-size="10" fill="#9ca3af">groupQueues</text>
<rect x="1094" y="52" width="112" height="58" rx="16" fill="#f8fafc" stroke="#e5e7eb"/>
<text x="1108" y="74" font-family="Arial, PingFang SC, sans-serif" font-size="12" fill="#6b7280">收尾</text>
<text x="1108" y="94" font-family="Arial, PingFang SC, sans-serif" font-size="18" font-weight="800" fill="#111827">0 分钟</text>
<text x="1108" y="108" font-family="Arial, PingFang SC, sans-serif" font-size="10" fill="#9ca3af">23:56</text>
<rect x="86" y="86" width="1140" height="538" rx="18" fill="#fffaf4" stroke="#eadfd2"/>
<line x1="86" y1="624.0" x2="1226" y2="624.0" stroke="#eadfd2" stroke-width="1"/>
<text x="72" y="628.0" text-anchor="end" font-family="Arial" font-size="12" fill="#7c2d12">0</text>
<line x1="86" y1="564.2" x2="1226" y2="564.2" stroke="#eadfd2" stroke-width="1"/>
<text x="72" y="568.2" text-anchor="end" font-family="Arial" font-size="12" fill="#7c2d12">30</text>
<line x1="86" y1="504.4" x2="1226" y2="504.4" stroke="#eadfd2" stroke-width="1"/>
<text x="72" y="508.4" text-anchor="end" font-family="Arial" font-size="12" fill="#7c2d12">60</text>
<line x1="86" y1="444.7" x2="1226" y2="444.7" stroke="#eadfd2" stroke-width="1"/>
<text x="72" y="448.7" text-anchor="end" font-family="Arial" font-size="12" fill="#7c2d12">90</text>
<line x1="86" y1="384.9" x2="1226" y2="384.9" stroke="#eadfd2" stroke-width="1"/>
<text x="72" y="388.9" text-anchor="end" font-family="Arial" font-size="12" fill="#7c2d12">120</text>
<line x1="86" y1="325.1" x2="1226" y2="325.1" stroke="#eadfd2" stroke-width="1"/>
<text x="72" y="329.1" text-anchor="end" font-family="Arial" font-size="12" fill="#7c2d12">150</text>
<line x1="86" y1="265.3" x2="1226" y2="265.3" stroke="#eadfd2" stroke-width="1"/>
<text x="72" y="269.3" text-anchor="end" font-family="Arial" font-size="12" fill="#7c2d12">180</text>
<line x1="86" y1="205.6" x2="1226" y2="205.6" stroke="#eadfd2" stroke-width="1"/>
<text x="72" y="209.6" text-anchor="end" font-family="Arial" font-size="12" fill="#7c2d12">210</text>
<line x1="86" y1="145.8" x2="1226" y2="145.8" stroke="#eadfd2" stroke-width="1"/>
<text x="72" y="149.8" text-anchor="end" font-family="Arial" font-size="12" fill="#7c2d12">240</text>
<line x1="86" y1="86.0" x2="1226" y2="86.0" stroke="#eadfd2" stroke-width="1"/>
<text x="72" y="90.0" text-anchor="end" font-family="Arial" font-size="12" fill="#7c2d12">270</text>
<line x1="113.5" y1="86" x2="113.5" y2="624" stroke="#f0e7dd" stroke-width="1"/>
<text x="113.5" y="650" text-anchor="middle" font-family="Arial" font-size="12" fill="#6b7280">12:00</text>
<line x1="206.7" y1="86" x2="206.7" y2="624" stroke="#f0e7dd" stroke-width="1"/>
<text x="206.7" y="650" text-anchor="middle" font-family="Arial" font-size="12" fill="#6b7280">13:00</text>
<line x1="299.8" y1="86" x2="299.8" y2="624" stroke="#f0e7dd" stroke-width="1"/>
<text x="299.8" y="650" text-anchor="middle" font-family="Arial" font-size="12" fill="#6b7280">14:00</text>
<line x1="393.0" y1="86" x2="393.0" y2="624" stroke="#f0e7dd" stroke-width="1"/>
<text x="393.0" y="650" text-anchor="middle" font-family="Arial" font-size="12" fill="#6b7280">15:00</text>
<line x1="486.2" y1="86" x2="486.2" y2="624" stroke="#f0e7dd" stroke-width="1"/>
<text x="486.2" y="650" text-anchor="middle" font-family="Arial" font-size="12" fill="#6b7280">16:00</text>
<line x1="579.3" y1="86" x2="579.3" y2="624" stroke="#f0e7dd" stroke-width="1"/>
<text x="579.3" y="650" text-anchor="middle" font-family="Arial" font-size="12" fill="#6b7280">17:00</text>
<line x1="672.5" y1="86" x2="672.5" y2="624" stroke="#f0e7dd" stroke-width="1"/>
<text x="672.5" y="650" text-anchor="middle" font-family="Arial" font-size="12" fill="#6b7280">18:00</text>
<line x1="765.7" y1="86" x2="765.7" y2="624" stroke="#f0e7dd" stroke-width="1"/>
<text x="765.7" y="650" text-anchor="middle" font-family="Arial" font-size="12" fill="#6b7280">19:00</text>
<line x1="858.8" y1="86" x2="858.8" y2="624" stroke="#f0e7dd" stroke-width="1"/>
<text x="858.8" y="650" text-anchor="middle" font-family="Arial" font-size="12" fill="#6b7280">20:00</text>
<line x1="952.0" y1="86" x2="952.0" y2="624" stroke="#f0e7dd" stroke-width="1"/>
<text x="952.0" y="650" text-anchor="middle" font-family="Arial" font-size="12" fill="#6b7280">21:00</text>
<line x1="1045.2" y1="86" x2="1045.2" y2="624" stroke="#f0e7dd" stroke-width="1"/>
<text x="1045.2" y="650" text-anchor="middle" font-family="Arial" font-size="12" fill="#6b7280">22:00</text>
<line x1="1138.3" y1="86" x2="1138.3" y2="624" stroke="#f0e7dd" stroke-width="1"/>
<text x="1138.3" y="650" text-anchor="middle" font-family="Arial" font-size="12" fill="#6b7280">23:00</text>
<polygon points="86,624 86.0,335.1 96.9,315.1 105.5,335.1 115.3,345.0 123.8,345.0 132.3,345.0 135.0,345.0 143.9,345.0 152.1,355.0 160.6,404.8 169.2,454.6 177.7,454.6 186.3,444.7 194.8,534.3 203.5,544.3 267.4,584.1 275.9,584.1 284.4,594.1 293.0,604.1 301.6,594.1 307.1,594.1 315.5,604.1 324.0,614.0 332.6,624.0 341.1,624.0 349.6,624.0 358.2,624.0 366.7,624.0 375.2,624.0 383.8,624.0 392.3,624.0 400.9,624.0 409.4,624.0 417.9,624.0 426.5,624.0 435.0,624.0 443.6,624.0 452.1,624.0 460.7,624.0 469.2,614.0 477.7,624.0 486.3,624.0 494.8,614.0 503.4,624.0 511.9,624.0 520.4,624.0 529.0,604.1 538.2,594.1 546.8,584.1 555.3,604.1 563.9,584.1 572.4,494.5 580.9,394.9 589.5,285.3 598.0,225.5 606.5,175.7 615.1,175.7 623.7,175.7 632.2,235.4 640.7,195.6 649.2,185.6 657.8,155.7 666.4,145.8 674.9,135.8 764.8,125.9 773.4,115.9 781.9,125.9 790.4,225.5 799.0,225.5 807.5,215.5 816.0,235.4 824.6,275.3 833.1,295.2 841.7,345.0 850.2,365.0 858.7,404.8 867.3,404.8 875.8,404.8 884.4,424.7 892.9,434.7 901.4,474.6 910.0,484.5 918.5,494.5 927.1,494.5 935.6,544.3 944.2,564.2 952.7,564.2 961.3,584.1 969.8,614.0 978.4,624.0 986.8,624.0 995.4,624.0 1003.9,624.0 1012.5,624.0 1021.0,624.0 1029.6,624.0 1038.1,624.0 1046.6,624.0 1055.2,624.0 1063.7,624.0 1072.3,624.0 1080.8,624.0 1089.4,624.0 1097.9,624.0 1106.4,624.0 1115.0,624.0 1123.5,624.0 1132.1,624.0 1140.6,624.0 1149.2,624.0 1157.7,624.0 1166.2,624.0 1174.8,624.0 1183.3,624.0 1191.8,624.0 1200.4,624.0 1208.9,624.0 1217.5,624.0 1226.0,624.0 1226,624" fill="url(#fillWait)"/>
<polyline points="86.0,335.1 96.9,315.1 105.5,335.1 115.3,345.0 123.8,345.0 132.3,345.0 135.0,345.0 143.9,345.0 152.1,355.0 160.6,404.8 169.2,454.6 177.7,454.6 186.3,444.7 194.8,534.3 203.5,544.3 267.4,584.1 275.9,584.1 284.4,594.1 293.0,604.1 301.6,594.1 307.1,594.1 315.5,604.1 324.0,614.0 332.6,624.0 341.1,624.0 349.6,624.0 358.2,624.0 366.7,624.0 375.2,624.0 383.8,624.0 392.3,624.0 400.9,624.0 409.4,624.0 417.9,624.0 426.5,624.0 435.0,624.0 443.6,624.0 452.1,624.0 460.7,624.0 469.2,614.0 477.7,624.0 486.3,624.0 494.8,614.0 503.4,624.0 511.9,624.0 520.4,624.0 529.0,604.1 538.2,594.1 546.8,584.1 555.3,604.1 563.9,584.1 572.4,494.5 580.9,394.9 589.5,285.3 598.0,225.5 606.5,175.7 615.1,175.7 623.7,175.7 632.2,235.4 640.7,195.6 649.2,185.6 657.8,155.7 666.4,145.8 674.9,135.8 764.8,125.9 773.4,115.9 781.9,125.9 790.4,225.5 799.0,225.5 807.5,215.5 816.0,235.4 824.6,275.3 833.1,295.2 841.7,345.0 850.2,365.0 858.7,404.8 867.3,404.8 875.8,404.8 884.4,424.7 892.9,434.7 901.4,474.6 910.0,484.5 918.5,494.5 927.1,494.5 935.6,544.3 944.2,564.2 952.7,564.2 961.3,584.1 969.8,614.0 978.4,624.0 986.8,624.0 995.4,624.0 1003.9,624.0 1012.5,624.0 1021.0,624.0 1029.6,624.0 1038.1,624.0 1046.6,624.0 1055.2,624.0 1063.7,624.0 1072.3,624.0 1080.8,624.0 1089.4,624.0 1097.9,624.0 1106.4,624.0 1115.0,624.0 1123.5,624.0 1132.1,624.0 1140.6,624.0 1149.2,624.0 1157.7,624.0 1166.2,624.0 1174.8,624.0 1183.3,624.0 1191.8,624.0 1200.4,624.0 1208.9,624.0 1217.5,624.0 1226.0,624.0" fill="none" stroke="#B81C22" stroke-width="4" stroke-linecap="round" stroke-linejoin="round"/>
<polyline points="86.0,447.2 96.9,431.9 105.5,431.9 115.3,416.5 123.8,401.1 132.3,393.4 135.0,393.4 143.9,393.4 152.1,424.2 160.6,470.3 169.2,478.0 177.7,478.0 186.3,470.3 194.8,493.3 203.5,485.7 267.4,547.1 275.9,547.1 284.4,577.9 293.0,608.6 301.6,593.3 307.1,593.3 315.5,593.3 324.0,624.0 332.6,624.0 341.1,624.0 349.6,624.0 358.2,624.0 366.7,624.0 375.2,624.0 383.8,624.0 392.3,624.0 400.9,624.0 409.4,624.0 417.9,624.0 426.5,624.0 435.0,624.0 443.6,624.0 452.1,624.0 460.7,624.0 469.2,616.3 477.7,624.0 486.3,624.0 494.8,624.0 503.4,624.0 511.9,624.0 520.4,624.0 529.0,616.3 538.2,608.6 546.8,616.3 555.3,608.6 563.9,608.6 572.4,585.6 580.9,554.8 589.5,516.4 598.0,493.3 606.5,462.6 615.1,439.5 623.7,370.4 632.2,401.1 640.7,362.7 649.2,331.9 657.8,308.9 666.4,285.8 674.9,232.0 764.8,132.1 773.4,139.8 781.9,139.8 790.4,193.6 799.0,193.6 807.5,170.5 816.0,239.7 824.6,255.1 833.1,262.8 841.7,331.9 850.2,339.6 858.7,362.7 867.3,331.9 875.8,339.6 884.4,331.9 892.9,355.0 901.4,401.1 910.0,408.8 918.5,416.5 927.1,431.9 935.6,493.3 944.2,547.1 952.7,554.8 961.3,600.9 969.8,608.6 978.4,624.0 986.8,624.0 995.4,624.0 1003.9,624.0 1012.5,624.0 1021.0,624.0 1029.6,624.0 1038.1,624.0 1046.6,624.0 1055.2,624.0 1063.7,624.0 1072.3,624.0 1080.8,624.0 1089.4,624.0 1097.9,624.0 1106.4,624.0 1115.0,624.0 1123.5,624.0 1132.1,624.0 1140.6,624.0 1149.2,624.0 1157.7,624.0 1166.2,624.0 1174.8,624.0 1183.3,624.0 1191.8,624.0 1200.4,624.0 1208.9,624.0 1217.5,624.0 1226.0,624.0" fill="none" stroke="#D99A00" stroke-width="3" stroke-linecap="round" stroke-linejoin="round" stroke-dasharray="8 7" opacity="0.9"/>
<circle cx="773.4" cy="115.9" r="7" fill="#fff" stroke="#B81C22" stroke-width="4"/>
<rect x="735.4" y="82.0" width="104" height="34" rx="12" fill="#111827" opacity="0.9"/>
<text x="747.4" y="103.0" font-family="Arial, PingFang SC, sans-serif" font-size="12" fill="#fff">峰值 19:04 · 255分</text>
<circle cx="1226.0" cy="624.0" r="7" fill="#fff" stroke="#111827" stroke-width="4"/>
<rect x="1126.0" y="562.0" width="104" height="34" rx="12" fill="#111827" opacity="0.9"/>
<text x="1138.0" y="583.0" font-family="Arial, PingFang SC, sans-serif" font-size="12" fill="#fff">收尾 23:56 · 0分</text>
<text x="86" y="68" font-family="Arial, PingFang SC, sans-serif" font-size="13" font-weight="700" fill="#7c2d12">等待分钟</text>
<text x="1226" y="68" text-anchor="end" font-family="Arial, PingFang SC, sans-serif" font-size="13" font-weight="700" fill="#a16207">黄色虚线：在等桌数，按右侧比例折算</text>
<text x="1240" y="628.0" font-family="Arial" font-size="12" fill="#a16207">0</text>
<text x="1240" y="551.1" font-family="Arial" font-size="12" fill="#a16207">10</text>
<text x="1240" y="474.3" font-family="Arial" font-size="12" fill="#a16207">20</text>
<text x="1240" y="397.4" font-family="Arial" font-size="12" fill="#a16207">30</text>
<text x="1240" y="320.6" font-family="Arial" font-size="12" fill="#a16207">40</text>
<text x="1240" y="243.7" font-family="Arial" font-size="12" fill="#a16207">50</text>
<text x="1240" y="166.9" font-family="Arial" font-size="12" fill="#a16207">60</text>
<text x="1240" y="90.0" font-family="Arial" font-size="12" fill="#a16207">70</text>
<line x1="1226" y1="86" x2="1226" y2="624" stroke="#eab308" stroke-width="1" opacity="0.35"/>
<rect x="72" y="650" width="1136" height="1" fill="#eee2d6"/>
<circle cx="80" cy="674" r="6" fill="#B81C22"/><text x="94" y="679" font-family="Arial, PingFang SC, sans-serif" font-size="13" fill="#374151">红线：接口 wait，展示为预计等待分钟</text>
<line x1="360" y1="674" x2="394" y2="674" stroke="#D99A00" stroke-width="3" stroke-dasharray="8 7"/><text x="404" y="679" font-family="Arial, PingFang SC, sans-serif" font-size="13" fill="#374151">黄线：group_queues_count，在等桌数</text>
<text x="1160" y="679" text-anchor="end" font-family="Arial, PingFang SC, sans-serif" font-size="12" fill="#9ca3af">生成于本机 · 数据来自 ~/.sushiro/queue_baseline.jsonl</text>
</svg>